<?xml version="1.0" encoding="UTF-8" standalone="no"?>
<!DOCTYPE svg PUBLIC "-//W3C//DTD SVG 1.1//EN"
 "http://www.w3.org/Graphics/SVG/1.1/DTD/svg11.dtd">
<!-- Generated by graphviz version 2.40.1 (20161225.0304)
 -->
<!-- Title: G Pages: 1 -->
<svg width="943pt" height="655pt"
 viewBox="0.00 0.00 943.40 654.80" xmlns="http://www.w3.org/2000/svg" xmlns:xlink="http://www.w3.org/1999/xlink">
<g id="graph0" class="graph" transform="scale(1 1) rotate(0) translate(4 650.8)">
<title>G</title>
<polygon fill="#ffffff" stroke="transparent" points="-4,4 -4,-650.8 939.4028,-650.8 939.4028,4 -4,4"/>
<!-- index.js -->
<g id="node1" class="node">
<title>index.js</title>
<path fill="#e5e5e5" stroke="#000000" d="M51.7101,-235.7008C51.7101,-235.7008 8.2303,-235.7008 8.2303,-235.7008 4.13,-235.7008 .0298,-231.6005 .0298,-227.5003 .0298,-227.5003 .0298,-219.2997 .0298,-219.2997 .0298,-215.1995 4.13,-211.0992 8.2303,-211.0992 8.2303,-211.0992 51.7101,-211.0992 51.7101,-211.0992 55.8104,-211.0992 59.9106,-215.1995 59.9106,-219.2997 59.9106,-219.2997 59.9106,-227.5003 59.9106,-227.5003 59.9106,-231.6005 55.8104,-235.7008 51.7101,-235.7008"/>
<text text-anchor="middle" x="29.9702" y="-219.2" font-family="Times,serif" font-size="14.00" fill="#000000">index.js</text>
</g>
<!-- lib/agent.js -->
<g id="node2" class="node">
<title>lib/agent.js</title>
<path fill="#e5e5e5" stroke="#000000" d="M289.0315,-271.7008C289.0315,-271.7008 227.7785,-271.7008 227.7785,-271.7008 223.6783,-271.7008 219.578,-267.6005 219.578,-263.5003 219.578,-263.5003 219.578,-255.2997 219.578,-255.2997 219.578,-251.1995 223.6783,-247.0992 227.7785,-247.0992 227.7785,-247.0992 289.0315,-247.0992 289.0315,-247.0992 293.1317,-247.0992 297.232,-251.1995 297.232,-255.2997 297.232,-255.2997 297.232,-263.5003 297.232,-263.5003 297.232,-267.6005 293.1317,-271.7008 289.0315,-271.7008"/>
<text text-anchor="middle" x="258.405" y="-255.2" font-family="Times,serif" font-size="14.00" fill="#000000">lib/agent.js</text>
</g>
<!-- index.js&#45;&gt;lib/agent.js -->
<g id="edge1" class="edge">
<title>index.js&#45;&gt;lib/agent.js</title>
<path fill="none" stroke="#000000" d="M60.0419,-221.6246C88.105,-220.5906 131.0176,-220.6071 167.5484,-227.4 185.5211,-230.7421 204.711,-237.0646 220.8017,-243.2128"/>
<polygon fill="#000000" stroke="#000000" points="219.7944,-246.5779 230.3812,-246.9903 222.3623,-240.0659 219.7944,-246.5779"/>
</g>
<!-- lib/application.js -->
<g id="node3" class="node">
<title>lib/application.js</title>
<path fill="#e5e5e5" stroke="#000000" d="M304.918,-335.7008C304.918,-335.7008 211.892,-335.7008 211.892,-335.7008 207.7917,-335.7008 203.6914,-331.6005 203.6914,-327.5003 203.6914,-327.5003 203.6914,-319.2997 203.6914,-319.2997 203.6914,-315.1995 207.7917,-311.0992 211.892,-311.0992 211.892,-311.0992 304.918,-311.0992 304.918,-311.0992 309.0183,-311.0992 313.1186,-315.1995 313.1186,-319.2997 313.1186,-319.2997 313.1186,-327.5003 313.1186,-327.5003 313.1186,-331.6005 309.0183,-335.7008 304.918,-335.7008"/>
<text text-anchor="middle" x="258.405" y="-319.2" font-family="Times,serif" font-size="14.00" fill="#000000">lib/application.js</text>
</g>
<!-- index.js&#45;&gt;lib/application.js -->
<g id="edge2" class="edge">
<title>index.js&#45;&gt;lib/application.js</title>
<path fill="none" stroke="#000000" d="M39.2176,-235.8593C50.8032,-250.533 72.0584,-274.534 95.9404,-287.4 125.7605,-303.4651 162.3439,-312.366 193.2406,-317.2953"/>
<polygon fill="#000000" stroke="#000000" points="193.0764,-320.8094 203.4827,-318.8194 194.1067,-313.8856 193.0764,-320.8094"/>
</g>
<!-- lib/core/base_context_class.js -->
<g id="node4" class="node">
<title>lib/core/base_context_class.js</title>
<path fill="#e5e5e5" stroke="#000000" d="M688.4853,-85.7008C688.4853,-85.7008 522.3249,-85.7008 522.3249,-85.7008 518.2246,-85.7008 514.1244,-81.6005 514.1244,-77.5003 514.1244,-77.5003 514.1244,-69.2997 514.1244,-69.2997 514.1244,-65.1995 518.2246,-61.0992 522.3249,-61.0992 522.3249,-61.0992 688.4853,-61.0992 688.4853,-61.0992 692.5856,-61.0992 696.6858,-65.1995 696.6858,-69.2997 696.6858,-69.2997 696.6858,-77.5003 696.6858,-77.5003 696.6858,-81.6005 692.5856,-85.7008 688.4853,-85.7008"/>
<text text-anchor="middle" x="605.4051" y="-69.2" font-family="Times,serif" font-size="14.00" fill="#000000">lib/core/base_context_class.js</text>
</g>
<!-- index.js&#45;&gt;lib/core/base_context_class.js -->
<g id="edge3" class="edge">
<title>index.js&#45;&gt;lib/core/base_context_class.js</title>
<path fill="none" stroke="#000000" d="M60.0979,-215.5465C151.6431,-191.6832 427.6189,-119.744 548.0999,-88.3379"/>
<polygon fill="#000000" stroke="#000000" points="549.0909,-91.6966 557.8847,-85.7873 547.3252,-84.9229 549.0909,-91.6966"/>
</g>
<!-- lib/core/base_hook_class.js -->
<g id="node5" class="node">
<title>lib/core/base_hook_class.js</title>
<path fill="#e5e5e5" stroke="#000000" d="M681.7753,-24.7008C681.7753,-24.7008 529.0349,-24.7008 529.0349,-24.7008 524.9346,-24.7008 520.8344,-20.6005 520.8344,-16.5003 520.8344,-16.5003 520.8344,-8.2997 520.8344,-8.2997 520.8344,-4.1995 524.9346,-.0992 529.0349,-.0992 529.0349,-.0992 681.7753,-.0992 681.7753,-.0992 685.8756,-.0992 689.9758,-4.1995 689.9758,-8.2997 689.9758,-8.2997 689.9758,-16.5003 689.9758,-16.5003 689.9758,-20.6005 685.8756,-24.7008 681.7753,-24.7008"/>
<text text-anchor="middle" x="605.4051" y="-8.2" font-family="Times,serif" font-size="14.00" fill="#000000">lib/core/base_hook_class.js</text>
</g>
<!-- index.js&#45;&gt;lib/core/base_hook_class.js -->
<g id="edge4" class="edge">
<title>index.js&#45;&gt;lib/core/base_hook_class.js</title>
<path fill="none" stroke="#000000" d="M46.6662,-210.9142C59.6207,-201.6306 78.2875,-189.1144 95.9404,-180.4 139.8278,-158.735 310.0747,-104.3544 502.7448,-43.4 519.2086,-38.1914 537.2182,-32.6878 553.4925,-27.7867"/>
<polygon fill="#000000" stroke="#000000" points="554.8005,-31.0484 563.3719,-24.8209 552.7878,-24.344 554.8005,-31.0484"/>
</g>
<!-- lib/loader/index.js -->
<g id="node6" class="node">
<title>lib/loader/index.js</title>
<path fill="#e5e5e5" stroke="#000000" d="M458.7869,-410.7008C458.7869,-410.7008 357.2195,-410.7008 357.2195,-410.7008 353.1193,-410.7008 349.019,-406.6005 349.019,-402.5003 349.019,-402.5003 349.019,-394.2997 349.019,-394.2997 349.019,-390.1995 353.1193,-386.0992 357.2195,-386.0992 357.2195,-386.0992 458.7869,-386.0992 458.7869,-386.0992 462.8871,-386.0992 466.9874,-390.1995 466.9874,-394.2997 466.9874,-394.2997 466.9874,-402.5003 466.9874,-402.5003 466.9874,-406.6005 462.8871,-410.7008 458.7869,-410.7008"/>
<text text-anchor="middle" x="408.0032" y="-394.2" font-family="Times,serif" font-size="14.00" fill="#000000">lib/loader/index.js</text>
</g>
<!-- index.js&#45;&gt;lib/loader/index.js -->
<g id="edge5" class="edge">
<title>index.js&#45;&gt;lib/loader/index.js</title>
<path fill="none" stroke="#000000" d="M34.2769,-235.8581C42.5684,-257.9191 62.907,-303.7525 95.9404,-327.4 167.9201,-378.9278 271.1744,-393.8187 338.8968,-397.7168"/>
<polygon fill="#000000" stroke="#000000" points="338.8712,-401.22 349.0364,-398.2337 339.2276,-394.2291 338.8712,-401.22"/>
</g>
<!-- lib/start.js -->
<g id="node7" class="node">
<title>lib/start.js</title>
<path fill="#e5e5e5" stroke="#000000" d="M159.1529,-269.7008C159.1529,-269.7008 104.3359,-269.7008 104.3359,-269.7008 100.2356,-269.7008 96.1353,-265.6005 96.1353,-261.5003 96.1353,-261.5003 96.1353,-253.2997 96.1353,-253.2997 96.1353,-249.1995 100.2356,-245.0992 104.3359,-245.0992 104.3359,-245.0992 159.1529,-245.0992 159.1529,-245.0992 163.2532,-245.0992 167.3535,-249.1995 167.3535,-253.2997 167.3535,-253.2997 167.3535,-261.5003 167.3535,-261.5003 167.3535,-265.6005 163.2532,-269.7008 159.1529,-269.7008"/>
<text text-anchor="middle" x="131.7444" y="-253.2" font-family="Times,serif" font-size="14.00" fill="#000000">lib/start.js</text>
</g>
<!-- index.js&#45;&gt;lib/start.js -->
<g id="edge6" class="edge">
<title>index.js&#45;&gt;lib/start.js</title>
<path fill="none" stroke="#000000" d="M59.9554,-233.4172C68.2228,-236.1792 77.3812,-239.2387 86.3128,-242.2225"/>
<polygon fill="#000000" stroke="#000000" points="85.2689,-245.5639 95.8626,-245.4129 87.4869,-238.9246 85.2689,-245.5639"/>
</g>
<!-- lib/agent.js&#45;&gt;lib/loader/index.js -->
<g id="edge8" class="edge">
<title>lib/agent.js&#45;&gt;lib/loader/index.js</title>
<path fill="none" stroke="#000000" d="M281.5356,-271.7777C291.7163,-277.7087 303.5434,-285.2843 313.2616,-293.4 344.3732,-319.3813 374.7577,-355.5182 392.415,-377.9083"/>
<polygon fill="#000000" stroke="#000000" points="389.8417,-380.3005 398.7459,-386.0421 395.3657,-376.001 389.8417,-380.3005"/>
</g>
<!-- lib/egg.js -->
<g id="node8" class="node">
<title>lib/egg.js</title>
<path fill="#e5e5e5" stroke="#000000" d="M433.5248,-280.7008C433.5248,-280.7008 382.4816,-280.7008 382.4816,-280.7008 378.3813,-280.7008 374.281,-276.6005 374.281,-272.5003 374.281,-272.5003 374.281,-264.2997 374.281,-264.2997 374.281,-260.1995 378.3813,-256.0992 382.4816,-256.0992 382.4816,-256.0992 433.5248,-256.0992 433.5248,-256.0992 437.6251,-256.0992 441.7254,-260.1995 441.7254,-264.2997 441.7254,-264.2997 441.7254,-272.5003 441.7254,-272.5003 441.7254,-276.6005 437.6251,-280.7008 433.5248,-280.7008"/>
<text text-anchor="middle" x="408.0032" y="-264.2" font-family="Times,serif" font-size="14.00" fill="#000000">lib/egg.js</text>
</g>
<!-- lib/agent.js&#45;&gt;lib/egg.js -->
<g id="edge7" class="edge">
<title>lib/agent.js&#45;&gt;lib/egg.js</title>
<path fill="none" stroke="#000000" d="M297.3196,-261.7411C317.7048,-262.9675 342.7502,-264.4743 363.8576,-265.7442"/>
<polygon fill="#000000" stroke="#000000" points="363.6733,-269.2393 373.8655,-266.3462 364.0937,-262.2519 363.6733,-269.2393"/>
</g>
<!-- lib/application.js&#45;&gt;lib/loader/index.js -->
<g id="edge10" class="edge">
<title>lib/application.js&#45;&gt;lib/loader/index.js</title>
<path fill="none" stroke="#000000" d="M283.1081,-335.7847C308.0111,-348.2697 346.625,-367.6285 374.3239,-381.5151"/>
<polygon fill="#000000" stroke="#000000" points="372.7553,-384.6439 383.2634,-385.9969 375.8926,-378.3863 372.7553,-384.6439"/>
</g>
<!-- lib/application.js&#45;&gt;lib/egg.js -->
<g id="edge9" class="edge">
<title>lib/application.js&#45;&gt;lib/egg.js</title>
<path fill="none" stroke="#000000" d="M291.9778,-311.0569C313.5357,-303.1311 341.7379,-292.7625 364.9392,-284.2325"/>
<polygon fill="#000000" stroke="#000000" points="366.3645,-287.4377 374.5425,-280.7019 363.949,-280.8676 366.3645,-287.4377"/>
</g>
<!-- lib/core/base_context_logger.js -->
<g id="node9" class="node">
<title>lib/core/base_context_logger.js</title>
<path fill="#e5e5e5" stroke="#000000" d="M927.3713,-85.7008C927.3713,-85.7008 752.0969,-85.7008 752.0969,-85.7008 747.9967,-85.7008 743.8964,-81.6005 743.8964,-77.5003 743.8964,-77.5003 743.8964,-69.2997 743.8964,-69.2997 743.8964,-65.1995 747.9967,-61.0992 752.0969,-61.0992 752.0969,-61.0992 927.3713,-61.0992 927.3713,-61.0992 931.4715,-61.0992 935.5718,-65.1995 935.5718,-69.2997 935.5718,-69.2997 935.5718,-77.5003 935.5718,-77.5003 935.5718,-81.6005 931.4715,-85.7008 927.3713,-85.7008"/>
<text text-anchor="middle" x="839.7341" y="-69.2" font-family="Times,serif" font-size="14.00" fill="#000000">lib/core/base_context_logger.js</text>
</g>
<!-- lib/core/base_context_class.js&#45;&gt;lib/core/base_context_logger.js -->
<g id="edge11" class="edge">
<title>lib/core/base_context_class.js&#45;&gt;lib/core/base_context_logger.js</title>
<path fill="none" stroke="#000000" d="M697.0096,-73.4C709.0437,-73.4 721.456,-73.4 733.7046,-73.4"/>
<polygon fill="#000000" stroke="#000000" points="733.943,-76.9001 743.9429,-73.4 733.9429,-69.9001 733.943,-76.9001"/>
</g>
<!-- lib/loader/agent_worker_loader.js -->
<g id="node19" class="node">
<title>lib/loader/agent_worker_loader.js</title>
<path fill="#e5e5e5" stroke="#000000" d="M700.0254,-585.7008C700.0254,-585.7008 510.7848,-585.7008 510.7848,-585.7008 506.6845,-585.7008 502.5842,-581.6005 502.5842,-577.5003 502.5842,-577.5003 502.5842,-569.2997 502.5842,-569.2997 502.5842,-565.1995 506.6845,-561.0992 510.7848,-561.0992 510.7848,-561.0992 700.0254,-561.0992 700.0254,-561.0992 704.1257,-561.0992 708.226,-565.1995 708.226,-569.2997 708.226,-569.2997 708.226,-577.5003 708.226,-577.5003 708.226,-581.6005 704.1257,-585.7008 700.0254,-585.7008"/>
<text text-anchor="middle" x="605.4051" y="-569.2" font-family="Times,serif" font-size="14.00" fill="#000000">lib/loader/agent_worker_loader.js</text>
</g>
<!-- lib/loader/index.js&#45;&gt;lib/loader/agent_worker_loader.js -->
<g id="edge24" class="edge">
<title>lib/loader/index.js&#45;&gt;lib/loader/agent_worker_loader.js</title>
<path fill="none" stroke="#000000" d="M412.7343,-410.9188C423.933,-438.8495 454.7764,-506.606 502.7448,-542.4 511.0559,-548.6018 520.6103,-553.5723 530.4735,-557.5539"/>
<polygon fill="#000000" stroke="#000000" points="529.4008,-560.8888 539.994,-561.0761 531.8297,-554.3237 529.4008,-560.8888"/>
</g>
<!-- lib/loader/app_worker_loader.js -->
<g id="node20" class="node">
<title>lib/loader/app_worker_loader.js</title>
<path fill="#e5e5e5" stroke="#000000" d="M694.9201,-646.7008C694.9201,-646.7008 515.8901,-646.7008 515.8901,-646.7008 511.7898,-646.7008 507.6896,-642.6005 507.6896,-638.5003 507.6896,-638.5003 507.6896,-630.2997 507.6896,-630.2997 507.6896,-626.1995 511.7898,-622.0992 515.8901,-622.0992 515.8901,-622.0992 694.9201,-622.0992 694.9201,-622.0992 699.0204,-622.0992 703.1206,-626.1995 703.1206,-630.2997 703.1206,-630.2997 703.1206,-638.5003 703.1206,-638.5003 703.1206,-642.6005 699.0204,-646.7008 694.9201,-646.7008"/>
<text text-anchor="middle" x="605.4051" y="-630.2" font-family="Times,serif" font-size="14.00" fill="#000000">lib/loader/app_worker_loader.js</text>
</g>
<!-- lib/loader/index.js&#45;&gt;lib/loader/app_worker_loader.js -->
<g id="edge25" class="edge">
<title>lib/loader/index.js&#45;&gt;lib/loader/app_worker_loader.js</title>
<path fill="none" stroke="#000000" d="M410.1092,-410.9C416.7747,-446.5328 440.7527,-549.5127 502.7448,-603.4 509.6584,-609.4098 517.7068,-614.2545 526.1984,-618.1601"/>
<polygon fill="#000000" stroke="#000000" points="524.9759,-621.4422 535.5538,-622.0402 527.6576,-614.9762 524.9759,-621.4422"/>
</g>
<!-- lib/start.js&#45;&gt;lib/agent.js -->
<g id="edge26" class="edge">
<title>lib/start.js&#45;&gt;lib/agent.js</title>
<path fill="none" stroke="#000000" d="M167.3635,-257.9624C180.4346,-258.1688 195.4676,-258.4062 209.5022,-258.6278"/>
<polygon fill="#000000" stroke="#000000" points="209.4487,-262.1273 219.5027,-258.7857 209.5593,-255.1282 209.4487,-262.1273"/>
</g>
<!-- lib/start.js&#45;&gt;lib/application.js -->
<g id="edge27" class="edge">
<title>lib/start.js&#45;&gt;lib/application.js</title>
<path fill="none" stroke="#000000" d="M155.5683,-269.8141C175.3826,-280.1389 203.7874,-294.94 225.7256,-306.3715"/>
<polygon fill="#000000" stroke="#000000" points="224.2023,-309.5244 234.6879,-311.0416 227.4371,-303.3166 224.2023,-309.5244"/>
</g>
<!-- lib/egg.js&#45;&gt;lib/core/base_context_class.js -->
<g id="edge15" class="edge">
<title>lib/egg.js&#45;&gt;lib/core/base_context_class.js</title>
<path fill="none" stroke="#000000" d="M412.3038,-255.9699C423.0003,-226.801 453.5442,-153.3418 502.7448,-112.4 514.6465,-102.4961 529.3283,-94.9511 543.8285,-89.265"/>
<polygon fill="#000000" stroke="#000000" points="545.117,-92.5205 553.3,-85.7907 542.7064,-85.9486 545.117,-92.5205"/>
</g>
<!-- lib/egg.js&#45;&gt;lib/core/base_hook_class.js -->
<g id="edge16" class="edge">
<title>lib/egg.js&#45;&gt;lib/core/base_hook_class.js</title>
<path fill="none" stroke="#000000" d="M409.5181,-256.0714C414.8122,-218.3643 435.953,-103.5057 502.7448,-43.4 509.3309,-37.4732 517.016,-32.6787 525.164,-28.8003"/>
<polygon fill="#000000" stroke="#000000" points="526.7061,-31.9475 534.526,-24.7991 523.9551,-25.5107 526.7061,-31.9475"/>
</g>
<!-- lib/core/context_httpclient.js -->
<g id="node10" class="node">
<title>lib/core/context_httpclient.js</title>
<path fill="#e5e5e5" stroke="#000000" d="M685.2851,-219.7008C685.2851,-219.7008 525.5251,-219.7008 525.5251,-219.7008 521.4249,-219.7008 517.3246,-215.6005 517.3246,-211.5003 517.3246,-211.5003 517.3246,-203.2997 517.3246,-203.2997 517.3246,-199.1995 521.4249,-195.0992 525.5251,-195.0992 525.5251,-195.0992 685.2851,-195.0992 685.2851,-195.0992 689.3853,-195.0992 693.4856,-199.1995 693.4856,-203.2997 693.4856,-203.2997 693.4856,-211.5003 693.4856,-211.5003 693.4856,-215.6005 689.3853,-219.7008 685.2851,-219.7008"/>
<text text-anchor="middle" x="605.4051" y="-203.2" font-family="Times,serif" font-size="14.00" fill="#000000">lib/core/context_httpclient.js</text>
</g>
<!-- lib/egg.js&#45;&gt;lib/core/context_httpclient.js -->
<g id="edge17" class="edge">
<title>lib/egg.js&#45;&gt;lib/core/context_httpclient.js</title>
<path fill="none" stroke="#000000" d="M441.7318,-257.599C459.808,-251.841 482.471,-244.6705 502.7448,-238.4 519.3891,-233.252 537.5825,-227.7254 553.9684,-222.7849"/>
<polygon fill="#000000" stroke="#000000" points="555.3407,-226.027 563.9074,-219.7931 553.323,-219.3241 555.3407,-226.027"/>
</g>
<!-- lib/core/dnscache_httpclient.js -->
<g id="node11" class="node">
<title>lib/core/dnscache_httpclient.js</title>
<path fill="#e5e5e5" stroke="#000000" d="M690.3775,-402.7008C690.3775,-402.7008 520.4327,-402.7008 520.4327,-402.7008 516.3325,-402.7008 512.2322,-398.6005 512.2322,-394.5003 512.2322,-394.5003 512.2322,-386.2997 512.2322,-386.2997 512.2322,-382.1995 516.3325,-378.0992 520.4327,-378.0992 520.4327,-378.0992 690.3775,-378.0992 690.3775,-378.0992 694.4777,-378.0992 698.578,-382.1995 698.578,-386.2997 698.578,-386.2997 698.578,-394.5003 698.578,-394.5003 698.578,-398.6005 694.4777,-402.7008 690.3775,-402.7008"/>
<text text-anchor="middle" x="605.4051" y="-386.2" font-family="Times,serif" font-size="14.00" fill="#000000">lib/core/dnscache_httpclient.js</text>
</g>
<!-- lib/egg.js&#45;&gt;lib/core/dnscache_httpclient.js -->
<g id="edge18" class="edge">
<title>lib/egg.js&#45;&gt;lib/core/dnscache_httpclient.js</title>
<path fill="none" stroke="#000000" d="M417.6745,-280.9178C433.4259,-300.4714 466.5222,-338.2126 502.7448,-359.4 513.5234,-365.7046 525.7008,-370.8336 537.8042,-374.9701"/>
<polygon fill="#000000" stroke="#000000" points="536.8755,-378.3479 547.4669,-378.0783 539.0191,-371.6842 536.8755,-378.3479"/>
</g>
<!-- lib/core/httpclient.js -->
<g id="node12" class="node">
<title>lib/core/httpclient.js</title>
<path fill="#e5e5e5" stroke="#000000" d="M895.9037,-277.7008C895.9037,-277.7008 783.5645,-277.7008 783.5645,-277.7008 779.4642,-277.7008 775.364,-273.6005 775.364,-269.5003 775.364,-269.5003 775.364,-261.2997 775.364,-261.2997 775.364,-257.1995 779.4642,-253.0992 783.5645,-253.0992 783.5645,-253.0992 895.9037,-253.0992 895.9037,-253.0992 900.004,-253.0992 904.1042,-257.1995 904.1042,-261.2997 904.1042,-261.2997 904.1042,-269.5003 904.1042,-269.5003 904.1042,-273.6005 900.004,-277.7008 895.9037,-277.7008"/>
<text text-anchor="middle" x="839.7341" y="-261.2" font-family="Times,serif" font-size="14.00" fill="#000000">lib/core/httpclient.js</text>
</g>
<!-- lib/egg.js&#45;&gt;lib/core/httpclient.js -->
<g id="edge19" class="edge">
<title>lib/egg.js&#45;&gt;lib/core/httpclient.js</title>
<path fill="none" stroke="#000000" d="M416.0866,-255.9375C430.5191,-234.9813 462.969,-193.4083 502.7448,-177.4 587.3995,-143.3295 620.7427,-150.9055 708.0654,-177.4 752.2686,-190.8117 795.1627,-224.5217 819.4274,-246.1107"/>
<polygon fill="#000000" stroke="#000000" points="817.1637,-248.7829 826.9171,-252.9207 821.8728,-243.6037 817.1637,-248.7829"/>
</g>
<!-- lib/core/logger.js -->
<g id="node13" class="node">
<title>lib/core/logger.js</title>
<path fill="#e5e5e5" stroke="#000000" d="M652.9581,-463.7008C652.9581,-463.7008 557.8521,-463.7008 557.8521,-463.7008 553.7519,-463.7008 549.6516,-459.6005 549.6516,-455.5003 549.6516,-455.5003 549.6516,-447.2997 549.6516,-447.2997 549.6516,-443.1995 553.7519,-439.0992 557.8521,-439.0992 557.8521,-439.0992 652.9581,-439.0992 652.9581,-439.0992 657.0583,-439.0992 661.1586,-443.1995 661.1586,-447.2997 661.1586,-447.2997 661.1586,-455.5003 661.1586,-455.5003 661.1586,-459.6005 657.0583,-463.7008 652.9581,-463.7008"/>
<text text-anchor="middle" x="605.4051" y="-447.2" font-family="Times,serif" font-size="14.00" fill="#000000">lib/core/logger.js</text>
</g>
<!-- lib/egg.js&#45;&gt;lib/core/logger.js -->
<g id="edge20" class="edge">
<title>lib/egg.js&#45;&gt;lib/core/logger.js</title>
<path fill="none" stroke="#000000" d="M415.453,-280.8788C436.6627,-316.3342 496.2633,-415.4385 502.7448,-420.4 513.6893,-428.7779 526.8891,-434.9027 540.1245,-439.377"/>
<polygon fill="#000000" stroke="#000000" points="539.1487,-442.7387 549.7365,-442.3518 541.2184,-436.0517 539.1487,-442.7387"/>
</g>
<!-- lib/core/messenger/index.js -->
<g id="node14" class="node">
<title>lib/core/messenger/index.js</title>
<path fill="#e5e5e5" stroke="#000000" d="M681.7725,-524.7008C681.7725,-524.7008 529.0377,-524.7008 529.0377,-524.7008 524.9374,-524.7008 520.8371,-520.6005 520.8371,-516.5003 520.8371,-516.5003 520.8371,-508.2997 520.8371,-508.2997 520.8371,-504.1995 524.9374,-500.0992 529.0377,-500.0992 529.0377,-500.0992 681.7725,-500.0992 681.7725,-500.0992 685.8728,-500.0992 689.9731,-504.1995 689.9731,-508.2997 689.9731,-508.2997 689.9731,-516.5003 689.9731,-516.5003 689.9731,-520.6005 685.8728,-524.7008 681.7725,-524.7008"/>
<text text-anchor="middle" x="605.4051" y="-508.2" font-family="Times,serif" font-size="14.00" fill="#000000">lib/core/messenger/index.js</text>
</g>
<!-- lib/egg.js&#45;&gt;lib/core/messenger/index.js -->
<g id="edge21" class="edge">
<title>lib/egg.js&#45;&gt;lib/core/messenger/index.js</title>
<path fill="none" stroke="#000000" d="M416.5554,-280.8566C428.9338,-299.3106 451.9742,-335.3037 466.7448,-368.4 488.2263,-416.5333 465.1923,-444.4124 502.7448,-481.4 508.5738,-487.1413 515.4267,-491.825 522.7803,-495.645"/>
<polygon fill="#000000" stroke="#000000" points="521.7756,-499.0354 532.3231,-500.0363 524.7019,-492.6764 521.7756,-499.0354"/>
</g>
<!-- lib/core/singleton.js -->
<g id="node17" class="node">
<title>lib/core/singleton.js</title>
<path fill="#e5e5e5" stroke="#000000" d="M660.5231,-341.7008C660.5231,-341.7008 550.2871,-341.7008 550.2871,-341.7008 546.1868,-341.7008 542.0866,-337.6005 542.0866,-333.5003 542.0866,-333.5003 542.0866,-325.2997 542.0866,-325.2997 542.0866,-321.1995 546.1868,-317.0992 550.2871,-317.0992 550.2871,-317.0992 660.5231,-317.0992 660.5231,-317.0992 664.6234,-317.0992 668.7236,-321.1995 668.7236,-325.2997 668.7236,-325.2997 668.7236,-333.5003 668.7236,-333.5003 668.7236,-337.6005 664.6234,-341.7008 660.5231,-341.7008"/>
<text text-anchor="middle" x="605.4051" y="-325.2" font-family="Times,serif" font-size="14.00" fill="#000000">lib/core/singleton.js</text>
</g>
<!-- lib/egg.js&#45;&gt;lib/core/singleton.js -->
<g id="edge22" class="edge">
<title>lib/egg.js&#45;&gt;lib/core/singleton.js</title>
<path fill="none" stroke="#000000" d="M441.7318,-279.201C459.808,-284.959 482.471,-292.1295 502.7448,-298.4 519.3891,-303.548 537.5825,-309.0746 553.9684,-314.0151"/>
<polygon fill="#000000" stroke="#000000" points="553.323,-317.4759 563.9074,-317.0069 555.3407,-310.773 553.323,-317.4759"/>
</g>
<!-- lib/core/utils.js -->
<g id="node18" class="node">
<title>lib/core/utils.js</title>
<path fill="#e5e5e5" stroke="#000000" d="M646.8092,-280.7008C646.8092,-280.7008 564.001,-280.7008 564.001,-280.7008 559.9008,-280.7008 555.8005,-276.6005 555.8005,-272.5003 555.8005,-272.5003 555.8005,-264.2997 555.8005,-264.2997 555.8005,-260.1995 559.9008,-256.0992 564.001,-256.0992 564.001,-256.0992 646.8092,-256.0992 646.8092,-256.0992 650.9094,-256.0992 655.0097,-260.1995 655.0097,-264.2997 655.0097,-264.2997 655.0097,-272.5003 655.0097,-272.5003 655.0097,-276.6005 650.9094,-280.7008 646.8092,-280.7008"/>
<text text-anchor="middle" x="605.4051" y="-264.2" font-family="Times,serif" font-size="14.00" fill="#000000">lib/core/utils.js</text>
</g>
<!-- lib/egg.js&#45;&gt;lib/core/utils.js -->
<g id="edge23" class="edge">
<title>lib/egg.js&#45;&gt;lib/core/utils.js</title>
<path fill="none" stroke="#000000" d="M441.9378,-268.4C470.3094,-268.4 511.464,-268.4 545.3807,-268.4"/>
<polygon fill="#000000" stroke="#000000" points="545.6521,-271.9001 555.652,-268.4 545.652,-264.9001 545.6521,-271.9001"/>
</g>
<!-- lib/core/dnscache_httpclient.js&#45;&gt;lib/core/httpclient.js -->
<g id="edge12" class="edge">
<title>lib/core/dnscache_httpclient.js&#45;&gt;lib/core/httpclient.js</title>
<path fill="none" stroke="#000000" d="M658.0992,-378.0632C674.5356,-373.2796 692.4413,-367.0755 708.0654,-359.4 749.9656,-338.8161 792.9611,-305.3361 817.967,-284.3828"/>
<polygon fill="#000000" stroke="#000000" points="820.3708,-286.9333 825.7301,-277.7938 815.8411,-281.5964 820.3708,-286.9333"/>
</g>
<!-- lib/core/messenger/ipc.js -->
<g id="node15" class="node">
<title>lib/core/messenger/ipc.js</title>
<path fill="#e5e5e5" stroke="#000000" d="M909.1016,-493.7008C909.1016,-493.7008 770.3666,-493.7008 770.3666,-493.7008 766.2664,-493.7008 762.1661,-489.6005 762.1661,-485.5003 762.1661,-485.5003 762.1661,-477.2997 762.1661,-477.2997 762.1661,-473.1995 766.2664,-469.0992 770.3666,-469.0992 770.3666,-469.0992 909.1016,-469.0992 909.1016,-469.0992 913.2018,-469.0992 917.3021,-473.1995 917.3021,-477.2997 917.3021,-477.2997 917.3021,-485.5003 917.3021,-485.5003 917.3021,-489.6005 913.2018,-493.7008 909.1016,-493.7008"/>
<text text-anchor="middle" x="839.7341" y="-477.2" font-family="Times,serif" font-size="14.00" fill="#000000">lib/core/messenger/ipc.js</text>
</g>
<!-- lib/core/messenger/index.js&#45;&gt;lib/core/messenger/ipc.js -->
<g id="edge13" class="edge">
<title>lib/core/messenger/index.js&#45;&gt;lib/core/messenger/ipc.js</title>
<path fill="none" stroke="#000000" d="M690.0032,-501.2083C710.0777,-498.5526 731.5377,-495.7136 751.7588,-493.0385"/>
<polygon fill="#000000" stroke="#000000" points="752.4345,-496.4797 761.8891,-491.6983 751.5164,-489.5401 752.4345,-496.4797"/>
</g>
<!-- lib/core/messenger/local.js -->
<g id="node16" class="node">
<title>lib/core/messenger/local.js</title>
<path fill="#e5e5e5" stroke="#000000" d="M914.2065,-554.7008C914.2065,-554.7008 765.2617,-554.7008 765.2617,-554.7008 761.1614,-554.7008 757.0612,-550.6005 757.0612,-546.5003 757.0612,-546.5003 757.0612,-538.2997 757.0612,-538.2997 757.0612,-534.1995 761.1614,-530.0992 765.2617,-530.0992 765.2617,-530.0992 914.2065,-530.0992 914.2065,-530.0992 918.3068,-530.0992 922.407,-534.1995 922.407,-538.2997 922.407,-538.2997 922.407,-546.5003 922.407,-546.5003 922.407,-550.6005 918.3068,-554.7008 914.2065,-554.7008"/>
<text text-anchor="middle" x="839.7341" y="-538.2" font-family="Times,serif" font-size="14.00" fill="#000000">lib/core/messenger/local.js</text>
</g>
<!-- lib/core/messenger/index.js&#45;&gt;lib/core/messenger/local.js -->
<g id="edge14" class="edge">
<title>lib/core/messenger/index.js&#45;&gt;lib/core/messenger/local.js</title>
<path fill="none" stroke="#000000" d="M690.0032,-523.2307C708.4498,-525.5923 728.0662,-528.1037 746.8162,-530.5042"/>
<polygon fill="#000000" stroke="#000000" points="746.4664,-533.9879 756.8299,-531.7862 747.3554,-527.0445 746.4664,-533.9879"/>
</g>
</g>
</svg>
