
                <svg xmlns="http://www.w3.org/2000/svg" xmlns:xlink="http://www.w3.org/1999/xlink" width="466" height="650" shape-rendering="optimizeSpeed">
                
            <g>
                <rect x="50" y="80" width="237.2" height="30" style="fill:#80cbc4; stroke:#444; stroke-width:1"></rect>
                    
                <line x1="60" y1="80" x2="60" y2="110" style="fill:#80cbc4; stroke:#444; stroke-width:1"></line>
                <line x1="277.2" y1="80" x2="277.2" y2="110" style="fill:#80cbc4; stroke:#444; stroke-width:1"></line>
             
                <title>class ContextHttpClient </title>
            <text x="75" y="100" font-family="monospace" font-size="13" fill="#222">
                <tspan x="75" y="100">class ContextHttpClient </tspan>
            </text>
                
            </g>
            <g>
                <rect x="87" y="128.5" width="174.8" height="30" style="fill:#a5d6a7; stroke:#444; stroke-width:1"></rect>
                    
                <line x1="97" y1="128.5" x2="97" y2="158.5" style="fill:#a5d6a7; stroke:#444; stroke-width:1"></line>
                <line x1="251.8" y1="128.5" x2="251.8" y2="158.5" style="fill:#a5d6a7; stroke:#444; stroke-width:1"></line>
             
                <title>constructor(ctx)</title>
            <text x="112" y="148.5" font-family="monospace" font-size="13" fill="#222">
                <tspan x="112" y="148.5">constructor(ctx)</tspan>
            </text>
                
            </g>
                <g>
                   <rect x="124" y="177" width="139.2" height="30" rx="3" ry="3" style="fill:#90caf9; stroke:#444; stroke-width:1"></rect>
                   <title>this.ctx = ctx</title>
            <text x="139" y="197" font-family="monospace" font-size="13" fill="#222">
                <tspan x="139" y="197">this.ctx = ctx</tspan>
            </text>
                   
                   
                </g>
                <g>
                   <rect x="124" y="225.5" width="170.4" height="30" rx="3" ry="3" style="fill:#90caf9; stroke:#444; stroke-width:1"></rect>
                   <title>this.app = ctx.app</title>
            <text x="139" y="245.5" font-family="monospace" font-size="13" fill="#222">
                <tspan x="139" y="245.5">this.app = ctx.app</tspan>
            </text>
                   
                   
                </g>
            <g>
                <rect x="87" y="289" width="190.4" height="30" style="fill:#a5d6a7; stroke:#444; stroke-width:1"></rect>
                    
                <line x1="97" y1="289" x2="97" y2="319" style="fill:#a5d6a7; stroke:#444; stroke-width:1"></line>
                <line x1="267.4" y1="289" x2="267.4" y2="319" style="fill:#a5d6a7; stroke:#444; stroke-width:1"></line>
             
                <title>curl(url, options)</title>
            <text x="112" y="309" font-family="monospace" font-size="13" fill="#222">
                <tspan x="112" y="309">curl(url, options)</tspan>
            </text>
                
            </g>
                <g>
                   <rect x="124" y="337.5" width="209.4" height="30" rx="3" ry="3" style="fill:#90caf9; stroke:#444; stroke-width:1"></rect>
                   <title>options = options || {}</title>
            <text x="139" y="357.5" font-family="monospace" font-size="13" fill="#222">
                <tspan x="139" y="357.5">options = options || {}</tspan>
            </text>
                   
                   
                </g>
                <g>
                   <rect x="124" y="386" width="201.6" height="30" rx="3" ry="3" style="fill:#90caf9; stroke:#444; stroke-width:1"></rect>
                   <title>options.ctx = this.ctx</title>
            <text x="139" y="406" font-family="monospace" font-size="13" fill="#222">
                <tspan x="139" y="406">options.ctx = this.ctx</tspan>
            </text>
                   
                   
                </g>
            <g>
                <rect x="124" y="434.5" width="295.2" height="30" rx="3" ry="3" style="fill:#90caf9; stroke:#444; stroke-width:1"></rect>
                
                <line x1="419.2" y1="444.5" x2="424.2" y2="444.5" style="fill:#a5d6a7; stroke:#444; stroke-width:1"></line>
                
                <line x1="419.2" y1="454.5" x2="424.2" y2="454.5" style="fill:#a5d6a7; stroke:#444; stroke-width:1"></line>

                <path d="M424.2, 438.5 L440.2, 449.5 L424.2, 460.5 Z" fill="#a5d6a7" stroke="#444" stroke-width="1"></path>
                             
                <title>return this.app.curl(url, options)</title>
            <text x="139" y="454.5" font-family="monospace" font-size="13" fill="#222">
                <tspan x="139" y="454.5">return this.app.curl(url, options)</tspan>
            </text>
                
            </g>
            <g>
                <rect x="87" y="498" width="213.79999999999998" height="30" style="fill:#a5d6a7; stroke:#444; stroke-width:1"></rect>
                    
                <line x1="97" y1="498" x2="97" y2="528" style="fill:#a5d6a7; stroke:#444; stroke-width:1"></line>
                <line x1="290.79999999999995" y1="498" x2="290.79999999999995" y2="528" style="fill:#a5d6a7; stroke:#444; stroke-width:1"></line>
             
                <title>request(url, options)</title>
            <text x="112" y="518" font-family="monospace" font-size="13" fill="#222">
                <tspan x="112" y="518">request(url, options)</tspan>
            </text>
                
            </g>
            <g>
                <rect x="124" y="546.5" width="264" height="30" rx="3" ry="3" style="fill:#90caf9; stroke:#444; stroke-width:1"></rect>
                
                <line x1="388" y1="556.5" x2="393" y2="556.5" style="fill:#a5d6a7; stroke:#444; stroke-width:1"></line>
                
                <line x1="388" y1="566.5" x2="393" y2="566.5" style="fill:#a5d6a7; stroke:#444; stroke-width:1"></line>

                <path d="M393, 550.5 L409, 561.5 L393, 572.5 Z" fill="#a5d6a7" stroke="#444" stroke-width="1"></path>
                             
                <title>return this.curl(url, options)</title>
            <text x="139" y="566.5" font-family="monospace" font-size="13" fill="#222">
                <tspan x="139" y="566.5">return this.curl(url, options)</tspan>
            </text>
                
            </g>
                <g>
                   <rect x="50" y="595" width="295.2" height="30" rx="3" ry="3" style="fill:#90caf9; stroke:#444; stroke-width:1"></rect>
                   <title>module.exports = ContextHttpClient</title>
            <text x="65" y="615" font-family="monospace" font-size="13" fill="#222">
                <tspan x="65" y="615">module.exports = ContextHttpClient</tspan>
            </text>
                   
                   
                </g>
            <g>
               <rect x="25" y="13.75" width="216.6" height="24" style="fill:#fff59d; stroke:#444; stroke-width:1"></rect>
               <circle cx="25" cy="25" r="15" style="fill:#fff59d; stroke:#444; stroke-width:1"></circle>
               <title>Program: source module</title>
            <text x="55" y="30" font-family="monospace" font-size="13" fill="#222">
                <tspan x="55" y="30">Program: source module</tspan>
            </text>
            </g>
            <g>
               <path d="M25, 40 L25 91 Q25 95
                29 95
                L42 95 " style="fill:none; stroke:#444; stroke-width:1"></path>
               <path d="M42, 92 L50, 95 L42, 98 Z" fill="#333"></path>
            </g>
            <g>
               <path d="M68.5, 110 L68.5 139.5 Q68.5 143.5
                72.5 143.5
                L79 143.5 " style="fill:none; stroke:#444; stroke-width:1"></path>
               <path d="M79, 140.5 L87, 143.5 L79, 146.5 Z" fill="#333"></path>
            </g>
            <g>
               <path d="M105.5, 158.5 L105.5 188 Q105.5 192
                109.5 192
                L116 192 " style="fill:none; stroke:#444; stroke-width:1"></path>
               <path d="M116, 189 L124, 192 L116, 195 Z" fill="#333"></path>
            </g>
            <g>
               <path d="M105.5, 158.5 L105.5 236.5 Q105.5 240.5
                109.5 240.5
                L116 240.5 " style="fill:none; stroke:#444; stroke-width:1"></path>
               <path d="M116, 237.5 L124, 240.5 L116, 243.5 Z" fill="#333"></path>
            </g>
            <g>
               <path d="M68.5, 110 L68.5 300 Q68.5 304
                72.5 304
                L79 304 " style="fill:none; stroke:#444; stroke-width:1"></path>
               <path d="M79, 301 L87, 304 L79, 307 Z" fill="#333"></path>
            </g>
            <g>
               <path d="M105.5, 319 L105.5 348.5 Q105.5 352.5
                109.5 352.5
                L116 352.5 " style="fill:none; stroke:#444; stroke-width:1"></path>
               <path d="M116, 349.5 L124, 352.5 L116, 355.5 Z" fill="#333"></path>
            </g>
            <g>
               <path d="M105.5, 319 L105.5 397 Q105.5 401
                109.5 401
                L116 401 " style="fill:none; stroke:#444; stroke-width:1"></path>
               <path d="M116, 398 L124, 401 L116, 404 Z" fill="#333"></path>
            </g>
            <g>
               <path d="M105.5, 319 L105.5 445.5 Q105.5 449.5
                109.5 449.5
                L116 449.5 " style="fill:none; stroke:#444; stroke-width:1"></path>
               <path d="M116, 446.5 L124, 449.5 L116, 452.5 Z" fill="#333"></path>
            </g>
            <g>
               <path d="M68.5, 110 L68.5 509 Q68.5 513
                72.5 513
                L79 513 " style="fill:none; stroke:#444; stroke-width:1"></path>
               <path d="M79, 510 L87, 513 L79, 516 Z" fill="#333"></path>
            </g>
            <g>
               <path d="M105.5, 528 L105.5 557.5 Q105.5 561.5
                109.5 561.5
                L116 561.5 " style="fill:none; stroke:#444; stroke-width:1"></path>
               <path d="M116, 558.5 L124, 561.5 L116, 564.5 Z" fill="#333"></path>
            </g>
            <g>
               <path d="M25, 40 L25 606 Q25 610
                29 610
                L42 610 " style="fill:none; stroke:#444; stroke-width:1"></path>
               <path d="M42, 607 L50, 610 L42, 613 Z" fill="#333"></path>
            </g>
            </svg>