
                <svg xmlns="http://www.w3.org/2000/svg" xmlns:xlink="http://www.w3.org/1999/xlink" width="472" height="975" shape-rendering="optimizeSpeed">
                
                <g>
                   <rect x="50" y="65" width="396.59999999999997" height="30" rx="3" ry="3" style="fill:#90caf9; stroke:#444; stroke-width:1"></rect>
                   <title>const EggLoader = require('egg-core').EggLoader</title>
            <text x="65" y="85" font-family="monospace" font-size="13" fill="#222">
                <tspan x="65" y="85">const EggLoader = require('egg-core').EggLoader</tspan>
            </text>
                   
                   
                </g>
            <g>
                <rect x="50" y="128.5" width="362" height="30" style="fill:#80cbc4; stroke:#444; stroke-width:1"></rect>
                    
                <line x1="60" y1="128.5" x2="60" y2="158.5" style="fill:#80cbc4; stroke:#444; stroke-width:1"></line>
                <line x1="402" y1="128.5" x2="402" y2="158.5" style="fill:#80cbc4; stroke:#444; stroke-width:1"></line>
             
                <title>class AppWorkerLoader  extends EggLoader</title>
            <text x="75" y="148.5" font-family="monospace" font-size="13" fill="#222">
                <tspan x="75" y="148.5">class AppWorkerLoader  extends EggLoader</tspan>
            </text>
                
            </g>
            <g>
                <rect x="87" y="177" width="143.6" height="30" style="fill:#a5d6a7; stroke:#444; stroke-width:1"></rect>
                    
                <line x1="97" y1="177" x2="97" y2="207" style="fill:#a5d6a7; stroke:#444; stroke-width:1"></line>
                <line x1="220.6" y1="177" x2="220.6" y2="207" style="fill:#a5d6a7; stroke:#444; stroke-width:1"></line>
             
                <title>loadConfig()</title>
            <text x="112" y="197" font-family="monospace" font-size="13" fill="#222">
                <tspan x="112" y="197">loadConfig()</tspan>
            </text>
                
            </g>
                <g>
                   <rect x="124" y="225.5" width="162.6" height="30" rx="2" ry="2" style="fill:#C5E1A5; stroke:#444; stroke-width:1"></rect>
                   <title>this.loadPlugin()</title>
            <text x="139" y="245.5" font-family="monospace" font-size="13" fill="#222">
                <tspan x="139" y="245.5">this.loadPlugin()</tspan>
            </text>
                   
                   
                </g>
                <g>
                   <rect x="124" y="274" width="170.4" height="30" rx="2" ry="2" style="fill:#C5E1A5; stroke:#444; stroke-width:1"></rect>
                   <title>super.loadConfig()</title>
            <text x="139" y="294" font-family="monospace" font-size="13" fill="#222">
                <tspan x="139" y="294">super.loadConfig()</tspan>
            </text>
                   
                   
                </g>
            <g>
                <rect x="87" y="337.5" width="96.8" height="30" style="fill:#a5d6a7; stroke:#444; stroke-width:1"></rect>
                    
                <line x1="97" y1="337.5" x2="97" y2="367.5" style="fill:#a5d6a7; stroke:#444; stroke-width:1"></line>
                <line x1="173.8" y1="337.5" x2="173.8" y2="367.5" style="fill:#a5d6a7; stroke:#444; stroke-width:1"></line>
             
                <title>load()</title>
            <text x="112" y="357.5" font-family="monospace" font-size="13" fill="#222">
                <tspan x="112" y="357.5">load()</tspan>
            </text>
                
            </g>
                <g>
                   <rect x="124" y="386" width="248.4" height="30" rx="2" ry="2" style="fill:#C5E1A5; stroke:#444; stroke-width:1"></rect>
                   <title>this.loadApplicationExtend()</title>
            <text x="139" y="406" font-family="monospace" font-size="13" fill="#222">
                <tspan x="139" y="406">this.loadApplicationExtend()</tspan>
            </text>
                   
                   
                </g>
                <g>
                   <rect x="124" y="434.5" width="217.2" height="30" rx="2" ry="2" style="fill:#C5E1A5; stroke:#444; stroke-width:1"></rect>
                   <title>this.loadRequestExtend()</title>
            <text x="139" y="454.5" font-family="monospace" font-size="13" fill="#222">
                <tspan x="139" y="454.5">this.loadRequestExtend()</tspan>
            </text>
                   
                   
                </g>
                <g>
                   <rect x="124" y="483" width="225" height="30" rx="2" ry="2" style="fill:#C5E1A5; stroke:#444; stroke-width:1"></rect>
                   <title>this.loadResponseExtend()</title>
            <text x="139" y="503" font-family="monospace" font-size="13" fill="#222">
                <tspan x="139" y="503">this.loadResponseExtend()</tspan>
            </text>
                   
                   
                </g>
                <g>
                   <rect x="124" y="531.5" width="217.2" height="30" rx="2" ry="2" style="fill:#C5E1A5; stroke:#444; stroke-width:1"></rect>
                   <title>this.loadContextExtend()</title>
            <text x="139" y="551.5" font-family="monospace" font-size="13" fill="#222">
                <tspan x="139" y="551.5">this.loadContextExtend()</tspan>
            </text>
                   
                   
                </g>
                <g>
                   <rect x="124" y="580" width="209.4" height="30" rx="2" ry="2" style="fill:#C5E1A5; stroke:#444; stroke-width:1"></rect>
                   <title>this.loadHelperExtend()</title>
            <text x="139" y="600" font-family="monospace" font-size="13" fill="#222">
                <tspan x="139" y="600">this.loadHelperExtend()</tspan>
            </text>
                   
                   
                </g>
                <g>
                   <rect x="124" y="628.5" width="209.4" height="30" rx="2" ry="2" style="fill:#C5E1A5; stroke:#444; stroke-width:1"></rect>
                   <title>this.loadCustomLoader()</title>
            <text x="139" y="648.5" font-family="monospace" font-size="13" fill="#222">
                <tspan x="139" y="648.5">this.loadCustomLoader()</tspan>
            </text>
                   
                   
                </g>
                <g>
                   <rect x="124" y="677" width="186" height="30" rx="2" ry="2" style="fill:#C5E1A5; stroke:#444; stroke-width:1"></rect>
                   <title>this.loadCustomApp()</title>
            <text x="139" y="697" font-family="monospace" font-size="13" fill="#222">
                <tspan x="139" y="697">this.loadCustomApp()</tspan>
            </text>
                   
                   
                </g>
                <g>
                   <rect x="124" y="725.5" width="170.4" height="30" rx="2" ry="2" style="fill:#C5E1A5; stroke:#444; stroke-width:1"></rect>
                   <title>this.loadService()</title>
            <text x="139" y="745.5" font-family="monospace" font-size="13" fill="#222">
                <tspan x="139" y="745.5">this.loadService()</tspan>
            </text>
                   
                   
                </g>
                <g>
                   <rect x="124" y="774" width="193.79999999999998" height="30" rx="2" ry="2" style="fill:#C5E1A5; stroke:#444; stroke-width:1"></rect>
                   <title>this.loadMiddleware()</title>
            <text x="139" y="794" font-family="monospace" font-size="13" fill="#222">
                <tspan x="139" y="794">this.loadMiddleware()</tspan>
            </text>
                   
                   
                </g>
                <g>
                   <rect x="124" y="822.5" width="193.79999999999998" height="30" rx="2" ry="2" style="fill:#C5E1A5; stroke:#444; stroke-width:1"></rect>
                   <title>this.loadController()</title>
            <text x="139" y="842.5" font-family="monospace" font-size="13" fill="#222">
                <tspan x="139" y="842.5">this.loadController()</tspan>
            </text>
                   
                   
                </g>
                <g>
                   <rect x="124" y="871" width="162.6" height="30" rx="2" ry="2" style="fill:#C5E1A5; stroke:#444; stroke-width:1"></rect>
                   <title>this.loadRouter()</title>
            <text x="139" y="891" font-family="monospace" font-size="13" fill="#222">
                <tspan x="139" y="891">this.loadRouter()</tspan>
            </text>
                   
                   
                </g>
                <g>
                   <rect x="50" y="919.5" width="279.6" height="30" rx="3" ry="3" style="fill:#90caf9; stroke:#444; stroke-width:1"></rect>
                   <title>module.exports = AppWorkerLoader</title>
            <text x="65" y="939.5" font-family="monospace" font-size="13" fill="#222">
                <tspan x="65" y="939.5">module.exports = AppWorkerLoader</tspan>
            </text>
                   
                   
                </g>
            <g>
               <rect x="25" y="13.75" width="216.6" height="24" style="fill:#fff59d; stroke:#444; stroke-width:1"></rect>
               <circle cx="25" cy="25" r="15" style="fill:#fff59d; stroke:#444; stroke-width:1"></circle>
               <title>Program: source module</title>
            <text x="55" y="30" font-family="monospace" font-size="13" fill="#222">
                <tspan x="55" y="30">Program: source module</tspan>
            </text>
            </g>
            <g>
               <path d="M25, 40 L25 76 Q25 80
                29 80
                L42 80 " style="fill:none; stroke:#444; stroke-width:1"></path>
               <path d="M42, 77 L50, 80 L42, 83 Z" fill="#333"></path>
            </g>
            <g>
               <path d="M25, 40 L25 139.5 Q25 143.5
                29 143.5
                L42 143.5 " style="fill:none; stroke:#444; stroke-width:1"></path>
               <path d="M42, 140.5 L50, 143.5 L42, 146.5 Z" fill="#333"></path>
            </g>
            <g>
               <path d="M68.5, 158.5 L68.5 188 Q68.5 192
                72.5 192
                L79 192 " style="fill:none; stroke:#444; stroke-width:1"></path>
               <path d="M79, 189 L87, 192 L79, 195 Z" fill="#333"></path>
            </g>
            <g>
               <path d="M105.5, 207 L105.5 236.5 Q105.5 240.5
                109.5 240.5
                L116 240.5 " style="fill:none; stroke:#444; stroke-width:1"></path>
               <path d="M116, 237.5 L124, 240.5 L116, 243.5 Z" fill="#333"></path>
            </g>
            <g>
               <path d="M105.5, 207 L105.5 285 Q105.5 289
                109.5 289
                L116 289 " style="fill:none; stroke:#444; stroke-width:1"></path>
               <path d="M116, 286 L124, 289 L116, 292 Z" fill="#333"></path>
            </g>
            <g>
               <path d="M68.5, 158.5 L68.5 348.5 Q68.5 352.5
                72.5 352.5
                L79 352.5 " style="fill:none; stroke:#444; stroke-width:1"></path>
               <path d="M79, 349.5 L87, 352.5 L79, 355.5 Z" fill="#333"></path>
            </g>
            <g>
               <path d="M105.5, 367.5 L105.5 397 Q105.5 401
                109.5 401
                L116 401 " style="fill:none; stroke:#444; stroke-width:1"></path>
               <path d="M116, 398 L124, 401 L116, 404 Z" fill="#333"></path>
            </g>
            <g>
               <path d="M105.5, 367.5 L105.5 445.5 Q105.5 449.5
                109.5 449.5
                L116 449.5 " style="fill:none; stroke:#444; stroke-width:1"></path>
               <path d="M116, 446.5 L124, 449.5 L116, 452.5 Z" fill="#333"></path>
            </g>
            <g>
               <path d="M105.5, 367.5 L105.5 494 Q105.5 498
                109.5 498
                L116 498 " style="fill:none; stroke:#444; stroke-width:1"></path>
               <path d="M116, 495 L124, 498 L116, 501 Z" fill="#333"></path>
            </g>
            <g>
               <path d="M105.5, 367.5 L105.5 542.5 Q105.5 546.5
                109.5 546.5
                L116 546.5 " style="fill:none; stroke:#444; stroke-width:1"></path>
               <path d="M116, 543.5 L124, 546.5 L116, 549.5 Z" fill="#333"></path>
            </g>
            <g>
               <path d="M105.5, 367.5 L105.5 591 Q105.5 595
                109.5 595
                L116 595 " style="fill:none; stroke:#444; stroke-width:1"></path>
               <path d="M116, 592 L124, 595 L116, 598 Z" fill="#333"></path>
            </g>
            <g>
               <path d="M105.5, 367.5 L105.5 639.5 Q105.5 643.5
                109.5 643.5
                L116 643.5 " style="fill:none; stroke:#444; stroke-width:1"></path>
               <path d="M116, 640.5 L124, 643.5 L116, 646.5 Z" fill="#333"></path>
            </g>
            <g>
               <path d="M105.5, 367.5 L105.5 688 Q105.5 692
                109.5 692
                L116 692 " style="fill:none; stroke:#444; stroke-width:1"></path>
               <path d="M116, 689 L124, 692 L116, 695 Z" fill="#333"></path>
            </g>
            <g>
               <path d="M105.5, 367.5 L105.5 736.5 Q105.5 740.5
                109.5 740.5
                L116 740.5 " style="fill:none; stroke:#444; stroke-width:1"></path>
               <path d="M116, 737.5 L124, 740.5 L116, 743.5 Z" fill="#333"></path>
            </g>
            <g>
               <path d="M105.5, 367.5 L105.5 785 Q105.5 789
                109.5 789
                L116 789 " style="fill:none; stroke:#444; stroke-width:1"></path>
               <path d="M116, 786 L124, 789 L116, 792 Z" fill="#333"></path>
            </g>
            <g>
               <path d="M105.5, 367.5 L105.5 833.5 Q105.5 837.5
                109.5 837.5
                L116 837.5 " style="fill:none; stroke:#444; stroke-width:1"></path>
               <path d="M116, 834.5 L124, 837.5 L116, 840.5 Z" fill="#333"></path>
            </g>
            <g>
               <path d="M105.5, 367.5 L105.5 882 Q105.5 886
                109.5 886
                L116 886 " style="fill:none; stroke:#444; stroke-width:1"></path>
               <path d="M116, 883 L124, 886 L116, 889 Z" fill="#333"></path>
            </g>
            <g>
               <path d="M25, 40 L25 930.5 Q25 934.5
                29 934.5
                L42 934.5 " style="fill:none; stroke:#444; stroke-width:1"></path>
               <path d="M42, 931.5 L50, 934.5 L42, 937.5 Z" fill="#333"></path>
            </g>
            </svg>