
                <svg xmlns="http://www.w3.org/2000/svg" xmlns:xlink="http://www.w3.org/1999/xlink" width="616" height="763" shape-rendering="optimizeSpeed">
                
                <g>
                   <rect x="50" y="65" width="404.4" height="30" rx="3" ry="3" style="fill:#90caf9; stroke:#444; stroke-width:1"></rect>
                   <title>const Loggers = require('egg-logger').EggLoggers</title>
            <text x="65" y="85" font-family="monospace" font-size="13" fill="#222">
                <tspan x="65" y="85">const Loggers = require('egg-logger').EggLoggers</tspan>
            </text>
                   
                   
                </g>
            <g>
                <rect x="50" y="128.5" width="393.2" height="30" style="fill:#a5d6a7; stroke:#444; stroke-width:1"></rect>
                    
                <line x1="60" y1="128.5" x2="60" y2="158.5" style="fill:#a5d6a7; stroke:#444; stroke-width:1"></line>
                <line x1="433.2" y1="128.5" x2="433.2" y2="158.5" style="fill:#a5d6a7; stroke:#444; stroke-width:1"></line>
             
                <title>module.exports = function createLoggers(app)</title>
            <text x="75" y="148.5" font-family="monospace" font-size="13" fill="#222">
                <tspan x="75" y="148.5">module.exports = function createLoggers(app)</tspan>
            </text>
                
            </g>
                <g>
                   <rect x="87" y="177" width="326.4" height="30" rx="3" ry="3" style="fill:#90caf9; stroke:#444; stroke-width:1"></rect>
                   <title>const loggerConfig = app.config.logger</title>
            <text x="102" y="197" font-family="monospace" font-size="13" fill="#222">
                <tspan x="102" y="197">const loggerConfig = app.config.logger</tspan>
            </text>
                   
                   
                </g>
                <g>
                   <rect x="87" y="225.5" width="248.4" height="30" rx="3" ry="3" style="fill:#90caf9; stroke:#444; stroke-width:1"></rect>
                   <title>loggerConfig.type = app.type</title>
            <text x="102" y="245.5" font-family="monospace" font-size="13" fill="#222">
                <tspan x="102" y="245.5">loggerConfig.type = app.type</tspan>
            </text>
                   
                   
                </g><g>
            <rect x="117" y="289" width="473.4" height="30" rx="3" ry="3" style="fill:#ce93d8; stroke:#444; stroke-width:1"></rect>                
            <polygon points="87,304 117,274 147,304 117,334" style="fill:#ce93d8; stroke:#444; stroke-width:1"></polygon>
            <title>(app.config.env === 'prod' &amp;&amp; loggerConfig.level === 'DEBUG' &amp;&amp; !loggerConfig.allowDebugAtProd)</title>
            <text x="162" y="309" font-family="monospace" font-size="13" fill="#222">
                <tspan x="162" y="309">(app.config.env === 'prod' &amp;&amp; loggerConfig.level =...</tspan>
            </text>
            
            <text x="109.2" y="309" font-family="monospace" font-size="13" fill="#222">if</text> <text x="124.8" y="335.95" font-family="monospace" font-size="13" fill="#222">+</text> 
        </g>
                <g>
                   <rect x="137" y="344" width="240.6" height="30" rx="3" ry="3" style="fill:#90caf9; stroke:#444; stroke-width:1"></rect>
                   <title>loggerConfig.level = 'INFO'</title>
            <text x="152" y="364" font-family="monospace" font-size="13" fill="#222">
                <tspan x="152" y="364">loggerConfig.level = 'INFO'</tspan>
            </text>
                   
                   
                </g>
                <g>
                   <rect x="87" y="394" width="303" height="30" rx="3" ry="3" style="fill:#90caf9; stroke:#444; stroke-width:1"></rect>
                   <title>const loggers = Loggers(app.config)</title>
            <text x="102" y="414" font-family="monospace" font-size="13" fill="#222">
                <tspan x="102" y="414">const loggers = Loggers(app.config)</tspan>
            </text>
                   
                   
                </g>
                <g>
                   <rect x="87" y="442.5" width="139.2" height="30" rx="2" ry="2" style="fill:#C5E1A5; stroke:#444; stroke-width:1"></rect>
                   <title>app.ready(*())</title>
            <text x="102" y="462.5" font-family="monospace" font-size="13" fill="#222">
                <tspan x="102" y="462.5">app.ready(*())</tspan>
            </text>
                   
                   
                </g>
            <g>
                <rect x="124" y="491" width="89" height="30" style="fill:#a5d6a7; stroke:#444; stroke-width:1"></rect>
                    
                <line x1="134" y1="491" x2="134" y2="521" style="fill:#a5d6a7; stroke:#444; stroke-width:1"></line>
                <line x1="203" y1="491" x2="203" y2="521" style="fill:#a5d6a7; stroke:#444; stroke-width:1"></line>
             
                <title>() =&gt;</title>
            <text x="149" y="511" font-family="monospace" font-size="13" fill="#222">
                <tspan x="149" y="511">() =&gt;</tspan>
            </text>
                
            </g><g>
            <rect x="191" y="554.5" width="364.2" height="30" rx="3" ry="3" style="fill:#ce93d8; stroke:#444; stroke-width:1"></rect>                
            <polygon points="161,569.5 191,539.5 221,569.5 191,599.5" style="fill:#ce93d8; stroke:#444; stroke-width:1"></polygon>
            <title>(loggerConfig.disableConsoleAfterReady)</title>
            <text x="236" y="574.5" font-family="monospace" font-size="13" fill="#222">
                <tspan x="236" y="574.5">(loggerConfig.disableConsoleAfterReady)</tspan>
            </text>
            
            <text x="183.2" y="574.5" font-family="monospace" font-size="13" fill="#222">if</text> <text x="198.8" y="601.45" font-family="monospace" font-size="13" fill="#222">+</text> 
        </g>
                <g>
                   <rect x="211" y="609.5" width="217.2" height="30" rx="2" ry="2" style="fill:#C5E1A5; stroke:#444; stroke-width:1"></rect>
                   <title>loggers.disableConsole()</title>
            <text x="226" y="629.5" font-family="monospace" font-size="13" fill="#222">
                <tspan x="226" y="629.5">loggers.disableConsole()</tspan>
            </text>
                   
                   
                </g>
                <g>
                   <rect x="87" y="659.5" width="443.4" height="30" rx="2" ry="2" style="fill:#C5E1A5; stroke:#444; stroke-width:1"></rect>
                   <title>loggers.coreLogger.info('[egg:logger] init all loggers with options: %j', loggerConfig)</title>
            <text x="102" y="679.5" font-family="monospace" font-size="13" fill="#222">
                <tspan x="102" y="679.5">loggers.coreLogger.info('[egg:logger] init all log...</tspan>
            </text>
                   
                   
                </g>
            <g>
                <rect x="87" y="708" width="139.2" height="30" rx="3" ry="3" style="fill:#90caf9; stroke:#444; stroke-width:1"></rect>
                
                <line x1="226.2" y1="718" x2="231.2" y2="718" style="fill:#a5d6a7; stroke:#444; stroke-width:1"></line>
                
                <line x1="226.2" y1="728" x2="231.2" y2="728" style="fill:#a5d6a7; stroke:#444; stroke-width:1"></line>

                <path d="M231.2, 712 L247.2, 723 L231.2, 734 Z" fill="#a5d6a7" stroke="#444" stroke-width="1"></path>
                             
                <title>return loggers</title>
            <text x="102" y="728" font-family="monospace" font-size="13" fill="#222">
                <tspan x="102" y="728">return loggers</tspan>
            </text>
                
            </g>
            <g>
               <rect x="25" y="13.75" width="216.6" height="24" style="fill:#fff59d; stroke:#444; stroke-width:1"></rect>
               <circle cx="25" cy="25" r="15" style="fill:#fff59d; stroke:#444; stroke-width:1"></circle>
               <title>Program: source module</title>
            <text x="55" y="30" font-family="monospace" font-size="13" fill="#222">
                <tspan x="55" y="30">Program: source module</tspan>
            </text>
            </g>
            <g>
               <path d="M25, 40 L25 76 Q25 80
                29 80
                L42 80 " style="fill:none; stroke:#444; stroke-width:1"></path>
               <path d="M42, 77 L50, 80 L42, 83 Z" fill="#333"></path>
            </g>
            <g>
               <path d="M25, 40 L25 139.5 Q25 143.5
                29 143.5
                L42 143.5 " style="fill:none; stroke:#444; stroke-width:1"></path>
               <path d="M42, 140.5 L50, 143.5 L42, 146.5 Z" fill="#333"></path>
            </g>
            <g>
               <path d="M68.5, 158.5 L68.5 188 Q68.5 192
                72.5 192
                L79 192 " style="fill:none; stroke:#444; stroke-width:1"></path>
               <path d="M79, 189 L87, 192 L79, 195 Z" fill="#333"></path>
            </g>
            <g>
               <path d="M68.5, 158.5 L68.5 236.5 Q68.5 240.5
                72.5 240.5
                L79 240.5 " style="fill:none; stroke:#444; stroke-width:1"></path>
               <path d="M79, 237.5 L87, 240.5 L79, 243.5 Z" fill="#333"></path>
            </g>
            <g>
               <path d="M68.5, 158.5 L68.5 300 Q68.5 304
                72.5 304
                L79 304 " style="fill:none; stroke:#444; stroke-width:1"></path>
               <path d="M79, 301 L87, 304 L79, 307 Z" fill="#333"></path>
            </g>
            <g>
               <path d="M117, 334 L117 355 Q117 359
                121 359
                L129 359 " style="fill:none; stroke:#444; stroke-width:1"></path>
               <path d="M129, 356 L137, 359 L129, 362 Z" fill="#333"></path>
            </g>
            <g>
               <path d="M68.5, 158.5 L68.5 405 Q68.5 409
                72.5 409
                L79 409 " style="fill:none; stroke:#444; stroke-width:1"></path>
               <path d="M79, 406 L87, 409 L79, 412 Z" fill="#333"></path>
            </g>
            <g>
               <path d="M68.5, 158.5 L68.5 453.5 Q68.5 457.5
                72.5 457.5
                L79 457.5 " style="fill:none; stroke:#444; stroke-width:1"></path>
               <path d="M79, 454.5 L87, 457.5 L79, 460.5 Z" fill="#333"></path>
            </g>
            <g>
               <path d="M105.5, 472.5 L105.5 502 Q105.5 506
                109.5 506
                L124 506 " style="fill:none; stroke:#444; stroke-width:1"></path>
               false
            </g>
            <g>
               <path d="M142.5, 521 L142.5 565.5 Q142.5 569.5
                146.5 569.5
                L153 569.5 " style="fill:none; stroke:#444; stroke-width:1"></path>
               <path d="M153, 566.5 L161, 569.5 L153, 572.5 Z" fill="#333"></path>
            </g>
            <g>
               <path d="M191, 599.5 L191 620.5 Q191 624.5
                195 624.5
                L203 624.5 " style="fill:none; stroke:#444; stroke-width:1"></path>
               <path d="M203, 621.5 L211, 624.5 L203, 627.5 Z" fill="#333"></path>
            </g>
            <g>
               <path d="M68.5, 158.5 L68.5 670.5 Q68.5 674.5
                72.5 674.5
                L79 674.5 " style="fill:none; stroke:#444; stroke-width:1"></path>
               <path d="M79, 671.5 L87, 674.5 L79, 677.5 Z" fill="#333"></path>
            </g>
            <g>
               <path d="M68.5, 158.5 L68.5 719 Q68.5 723
                72.5 723
                L79 723 " style="fill:none; stroke:#444; stroke-width:1"></path>
               <path d="M79, 720 L87, 723 L79, 726 Z" fill="#333"></path>
            </g>
            </svg>