
                <svg xmlns="http://www.w3.org/2000/svg" xmlns:xlink="http://www.w3.org/1999/xlink" width="519" height="266" shape-rendering="optimizeSpeed">
                
                <g>
                   <rect x="50" y="65" width="412.2" height="30" rx="3" ry="3" style="fill:#90caf9; stroke:#444; stroke-width:1"></rect>
                   <title>exports.EggLoader = require('egg-core').EggLoader</title>
            <text x="65" y="85" font-family="monospace" font-size="13" fill="#222">
                <tspan x="65" y="85">exports.EggLoader = require('egg-core').EggLoader</tspan>
            </text>
                   
                   
                </g>
                <g>
                   <rect x="87" y="113.5" width="178.2" height="30" rx="2" ry="2" style="fill:#C5E1A5; stroke:#444; stroke-width:1"></rect>
                   <title>require('egg-core')</title>
            <text x="102" y="133.5" font-family="monospace" font-size="13" fill="#222">
                <tspan x="102" y="133.5">require('egg-core')</tspan>
            </text>
                   
                   
                </g>
                <g>
                   <rect x="50" y="162" width="443.4" height="30" rx="3" ry="3" style="fill:#90caf9; stroke:#444; stroke-width:1"></rect>
                   <title>exports.AppWorkerLoader = require('./app_worker_loader')</title>
            <text x="65" y="182" font-family="monospace" font-size="13" fill="#222">
                <tspan x="65" y="182">exports.AppWorkerLoader = require('./app_worker_lo...</tspan>
            </text>
                   
                   
                </g>
                <g>
                   <rect x="50" y="210.5" width="443.4" height="30" rx="3" ry="3" style="fill:#90caf9; stroke:#444; stroke-width:1"></rect>
                   <title>exports.AgentWorkerLoader = require('./agent_worker_loader')</title>
            <text x="65" y="230.5" font-family="monospace" font-size="13" fill="#222">
                <tspan x="65" y="230.5">exports.AgentWorkerLoader = require('./agent_worke...</tspan>
            </text>
                   
                   
                </g>
            <g>
               <rect x="25" y="13.75" width="216.6" height="24" style="fill:#fff59d; stroke:#444; stroke-width:1"></rect>
               <circle cx="25" cy="25" r="15" style="fill:#fff59d; stroke:#444; stroke-width:1"></circle>
               <title>Program: source module</title>
            <text x="55" y="30" font-family="monospace" font-size="13" fill="#222">
                <tspan x="55" y="30">Program: source module</tspan>
            </text>
            </g>
            <g>
               <path d="M25, 40 L25 76 Q25 80
                29 80
                L42 80 " style="fill:none; stroke:#444; stroke-width:1"></path>
               <path d="M42, 77 L50, 80 L42, 83 Z" fill="#333"></path>
            </g>
            <g>
               <path d="M68.5, 95 L68.5 124.5 Q68.5 128.5
                72.5 128.5
                L79 128.5 " style="fill:none; stroke:#444; stroke-width:1"></path>
               <path d="M79, 125.5 L87, 128.5 L79, 131.5 Z" fill="#333"></path>
            </g>
            <g>
               <path d="M25, 40 L25 173 Q25 177
                29 177
                L42 177 " style="fill:none; stroke:#444; stroke-width:1"></path>
               <path d="M42, 174 L50, 177 L42, 180 Z" fill="#333"></path>
            </g>
            <g>
               <path d="M25, 40 L25 221.5 Q25 225.5
                29 225.5
                L42 225.5 " style="fill:none; stroke:#444; stroke-width:1"></path>
               <path d="M42, 222.5 L50, 225.5 L42, 228.5 Z" fill="#333"></path>
            </g>
            </svg>